<?xml version="1.0" encoding="UTF-8" standalone="no"?>
<!-- Created with Inkscape (http://www.inkscape.org/) -->

<svg
        height="1076.1906"
        id="svg2"
        inkscape:version="0.91 r13725"
        sodipodi:docname="EmkayLogoBMP.svg"
        version="1.1"
        viewBox="0 0 1076.1906 1076.1906"
        width="1076.1906"
        xmlns="http://www.w3.org/2000/svg"
        xmlns:cc="http://creativecommons.org/ns#"
        xmlns:dc="http://purl.org/dc/elements/1.1/"
        xmlns:inkscape="http://www.inkscape.org/namespaces/inkscape"
        xmlns:rdf="http://www.w3.org/1999/02/22-rdf-syntax-ns#"
        xmlns:sodipodi="http://sodipodi.sourceforge.net/DTD/sodipodi-0.dtd">
    <metadata
            id="metadata8">
        <rdf:RDF>
            <cc:Work
                    rdf:about="">
                <dc:format>image/svg+xml</dc:format>
                <dc:type
                        rdf:resource="http://purl.org/dc/dcmitype/StillImage"/>
                <dc:title></dc:title>
            </cc:Work>
        </rdf:RDF>
    </metadata>
    <defs
            id="defs6">
        <clipPath
                clipPathUnits="userSpaceOnUse"
                id="clipPath4221">
            <rect
                    height="877.0636"
                    id="rect4223"
                    style="fill:none;fill-opacity:1;stroke:#000000;stroke-width:5.69999981;stroke-miterlimit:4;stroke-dasharray:none;stroke-opacity:1"
                    width="877.0636"
                    x="99.563499"
                    y="99.563499"/>
        </clipPath>
    </defs>
    <sodipodi:namedview
            bordercolor="#666666"
            borderopacity="1"
            gridtolerance="10"
            guidetolerance="10"
            id="namedview4"
            inkscape:current-layer="g4154"
            inkscape:cx="426.76171"
            inkscape:cy="425.51525"
            inkscape:pageopacity="0"
            inkscape:pageshadow="2"
            inkscape:window-height="703"
            inkscape:window-maximized="1"
            inkscape:window-width="1366"
            inkscape:window-x="0"
            inkscape:window-y="32"
            inkscape:zoom="0.31012575"
            objecttolerance="10"
            pagecolor="#ffffff"
            showgrid="false"/>
    <g
            clip-path="url(#clipPath4221)"
            id="g4154"
            transform="translate(6.0578018,3.9790892)">
        <path
                d="M 0,538.0953 0,0 l 538.0953,0 538.0953,0 0,538.0953 0,538.0953 -538.0953,0 -538.0953,0 0,-538.0953 z"
                id="path4158"
                inkscape:connector-curvature="0"
                style="fill:#fdf115"/>
        <path
                d="m 315.47623,862.62115 c -35.04963,-4.72441 -66.70277,-49.79394 -78.58616,-111.89547 -5.18816,-27.11283 -5.28673,-392.87095 -0.11317,-419.9074 9.92699,-51.87734 33.61846,-92.22856 63.85052,-108.74992 7.1565,-3.91092 21.24495,-4.26033 197.58692,-4.90029 153.81902,-0.55823 189.85764,-0.10605 189.75807,2.38095 -0.0676,1.68853 -11.77371,13.09483 -26.0136,25.34734 -14.23988,12.2525 -27.88148,24.03822 -30.31462,26.19048 -14.40705,12.74374 -45.97024,40.72103 -53.07269,47.0431 -4.58334,4.07974 -22.02194,19.34805 -38.75244,33.92962 l -30.41912,26.51191 -77.12427,0 c -42.41834,0 -78.81903,0.65034 -80.89042,1.44522 -5.65176,2.16878 -5.65176,75.89317 0,78.06196 2.07139,0.79488 58.85711,1.44521 126.1905,1.44521 l 122.42432,0 0,80.95239 0,80.95239 -126.24806,0 -126.24807,0 0.65281,39.88096 0.65281,39.88096 163.6905,0.61164 163.69049,0.61164 0,-120.42908 c 0,-104.71218 0.45674,-120.32864 3.49965,-119.65928 1.92481,0.42338 27.64721,24.76574 57.16091,54.0941 l 53.66124,53.32427 -0.61328,146.67576 -0.61326,146.67573 -233.33337,0.24431 C 427.6191,863.47393 319.4048,863.1506 315.47623,862.62115 Z M 774.91376,465.58096 c -3.45346,-5.1985 -4.67558,-11.11074 -4.67558,-22.61905 0,-17.81196 4.05889,-26.33067 25.00765,-52.48567 14.88976,-18.59022 21.90545,-32.19575 26.22055,-50.84951 2.84312,-12.2905 3.58988,-13.44679 6.2951,-9.74719 4.14762,5.67224 10.33385,27.49036 10.33385,36.44634 0,6.89066 -1.31619,11.15773 -8.5509,27.72178 -1.71588,3.92858 -10.26636,15.17858 -19.00107,25.00001 -20.53675,23.09183 -27.65387,33.89936 -29.47582,44.75986 l -1.47824,8.81157 -4.67554,-7.03814 z m -71.84642,-11.41424 c -17.6355,-16.857 -24.61588,-26.96053 -28.96857,-41.9297 -5.41972,-18.63869 4.53824,-45.31224 27.91879,-74.78379 41.42257,-52.21386 43.74691,-56.50208 45.14357,-83.28653 0.52922,-10.14881 1.79812,-18.45239 2.81977,-18.45239 1.87016,0 5.87457,7.67336 12.88757,24.69553 9.57348,23.23707 2.36043,47.07598 -25.66684,84.82829 -35.20803,47.4247 -40.20053,75.1783 -20.02314,111.30954 3.94135,7.05769 5.77816,12.5 4.21883,12.5 -1.51898,0 -9.76748,-6.69643 -18.32998,-14.88095 z m 38.04577,2.38095 c -11.76186,-17.67219 -13.73207,-23.36048 -13.73207,-39.64617 0,-17.65376 0.918,-19.59795 31.02655,-65.71098 22.97252,-35.18375 27.11352,-43.88091 28.8631,-60.62008 0.81919,-7.83755 2.34342,-13.72229 3.38721,-13.07719 3.47757,2.14923 8.98591,15.29788 11.9415,28.50483 5.016,22.41393 -1.86843,40.8646 -30.38638,81.43727 -23.28155,33.12282 -28.34303,50.93408 -20.99303,73.87423 2.84079,8.86636 -2.80778,6.20502 -10.10688,-4.76191 z"
                id="path4156"
                inkscape:connector-curvature="0"
                style="fill:#2196f3;fill-opacity:1"/>
    </g>
</svg>
